<svg width="1505" height="48" viewBox="0 0 1505 48" fill="none" xmlns="http://www.w3.org/2000/svg">
<path d="M1.02148 25.3226L20.7614 7.903C22.1258 6.699 24.332 6.699 25.6819 7.903L28.9622 10.7977C30.3266 12.0017 30.3266 13.9486 28.9622 15.1398L14.9846 27.5L28.9767 39.8474C30.3411 41.0514 30.3411 42.9983 28.9767 44.1895L25.6964 47.097C24.332 48.301 22.1258 48.301 20.7759 47.097L1.03599 29.6774C-0.342902 28.4734 -0.342902 26.5266 1.02148 25.3226Z" fill="black" fill-opacity="0.76"/>
<path d="M1503.81 21.3843L1480.78 1.05389C1479.19 -0.351298 1476.61 -0.351298 1475.04 1.05389L1471.21 4.43233C1469.62 5.83753 1469.62 8.10975 1471.21 9.49999L1487.52 23.9256L1471.19 38.3363C1469.6 39.7415 1469.6 42.0137 1471.19 43.404L1475.02 46.7974C1476.61 48.2026 1479.19 48.2026 1480.76 46.7974L1503.79 26.4669C1505.4 25.0617 1505.4 22.7895 1503.81 21.3843Z" fill="black" fill-opacity="0.76"/>
</svg>
