<svg width="90" height="90" viewBox="0 0 90 90" fill="none" xmlns="http://www.w3.org/2000/svg">
<circle cx="45" cy="45" r="45" fill="#E1FAF7"/>
<g clip-path="url(#clip0_162_627)">
<path fill-rule="evenodd" clip-rule="evenodd" d="M60.9427 58.7362L54.2701 54.8842C52.9735 54.1356 51.3005 54.5815 50.5523 55.8794L50.289 56.3361C49.6223 57.4927 48.5967 58.2297 47.2891 58.4976C45.9869 58.7644 44.7448 58.4851 43.6815 57.6874C41.4991 56.0501 39.4374 54.2423 37.5085 52.3134C35.58 50.3849 33.7722 48.3234 32.1353 46.1412C31.3376 45.0776 31.0574 43.8355 31.3242 42.5328C31.592 41.2255 32.3306 40.2014 33.4864 39.5343L33.9428 39.271C34.5757 38.9058 35.0187 38.3215 35.208 37.6163C35.3964 36.9143 35.3028 36.1831 34.9392 35.5534L31.0867 28.8809C30.4026 27.696 28.991 27.2258 27.721 27.7132L27.6381 27.745C26.3291 28.2472 22.7214 29.5649 21.7518 30.5345C18.8848 33.4017 20.1115 38.5886 21.3906 41.8893C23.6307 47.6699 27.8801 53.2338 32.2348 57.5879C36.5889 61.9415 42.1524 66.1921 47.9325 68.4321C49.938 69.2093 52.1947 69.8228 54.3597 69.8228C56.1716 69.8228 57.9751 69.3841 59.2883 68.0709C60.2125 67.1467 61.5833 63.426 62.0856 62.1625L62.118 62.0812C62.6193 60.8198 62.1145 59.4127 60.9427 58.7362V58.7362ZM58.8874 32.561C59.5182 32.7871 59.939 33.3856 59.939 34.0555V41.6532H60.2348C61.1108 41.6532 61.8223 42.3646 61.8223 43.2407C61.8223 44.1178 61.1118 44.8282 60.2348 44.8282H59.939V46.5856C59.939 47.4627 59.2276 48.1727 58.3514 48.1727C57.4749 48.1727 56.7644 47.4627 56.7644 46.5856V44.8282H50.7921C50.178 44.8282 49.6187 44.4739 49.3566 43.9193C49.0945 43.3638 49.176 42.7071 49.5658 42.233L57.1253 33.0463C57.5507 32.5293 58.2564 32.3351 58.8874 32.561V32.561ZM56.7644 41.6533H54.1548L56.7644 38.4825V41.6533ZM46.0052 38.5189C46.2968 37.4505 46.1255 36.6548 45.4931 36.1545C44.7579 35.5732 43.5336 35.4702 42.7052 35.9214C42.1089 36.2462 41.8566 36.7938 41.9329 37.5964C42.0176 38.4692 41.3783 39.2452 40.5055 39.3285C39.6321 39.4132 38.8576 38.7729 38.7733 37.9011C38.5725 35.8151 39.4519 34.0769 41.1859 33.1324C43.1408 32.0691 45.7224 32.2872 47.4635 33.6655C49.1137 34.9708 49.6987 37.0455 49.0679 39.3552C48.6383 40.9291 47.1517 42.088 45.5797 43.316C44.9086 43.8393 44.1953 44.3958 43.5485 44.9981H48.1613C49.038 44.9981 49.7484 45.7095 49.7484 46.5856C49.7484 47.4627 49.038 48.1727 48.1613 48.1727H40.3169C39.7702 48.1727 39.2615 47.8918 38.9714 47.4285C38.6807 46.9656 38.6503 46.3849 38.8886 45.893C39.9687 43.6676 41.9967 42.0847 43.6259 40.8131C44.618 40.0382 45.853 39.0745 46.0052 38.5189V38.5189ZM70 40.8529C70 46.3751 67.849 51.5663 63.9443 55.4715C63.634 55.7809 63.2282 55.9367 62.8216 55.9367C62.4158 55.9367 62.0087 55.7809 61.6993 55.4715C61.0792 54.8514 61.0792 53.846 61.6993 53.226C65.004 49.9213 66.825 45.5266 66.825 40.8529C66.825 31.2028 58.9749 23.3527 49.3248 23.3527C44.6507 23.3527 40.2564 25.1733 36.9514 28.478C36.3312 29.0981 35.3264 29.0981 34.7062 28.478C34.0861 27.8579 34.0861 26.853 34.7062 26.2329C38.6114 22.3287 43.8026 20.1777 49.3248 20.1777C60.7248 20.1778 70 29.4525 70 40.8529V40.8529Z" fill="#32D2BF"/>
</g>
<defs>
<clipPath id="clip0_162_627">
<rect width="50" height="50" fill="white" transform="translate(20 20)"/>
</clipPath>
</defs>
</svg>
