<svg width="90" height="90" viewBox="0 0 90 90" fill="none" xmlns="http://www.w3.org/2000/svg">
<circle cx="45" cy="45" r="45" fill="#E1F5FA"/>
<g clip-path="url(#clip0_162_645)">
<path d="M61.8887 52.6522L64.1975 50.4922C64.6019 50.1144 64.6447 49.456 64.2908 49.0226C63.9382 48.5892 63.3237 48.5448 62.918 48.9226L58.6649 52.9008C58.4549 53.0981 58.333 53.3842 58.333 53.6856C58.333 53.987 58.4549 54.2732 58.6662 54.4704L62.9193 58.4472C63.1047 58.6195 63.3315 58.7042 63.5584 58.7042C63.8293 58.7042 64.0989 58.5834 64.2908 58.3472C64.6434 57.9138 64.6019 57.2554 64.1975 56.8776L61.9186 54.7468C65.3175 54.8566 68.0539 57.8972 68.0539 61.6392V64.2909C68.0539 64.866 68.4895 65.3327 69.0262 65.3327C69.5628 65.3327 69.9997 64.8674 69.9997 64.2923V61.6406C69.9997 56.7359 66.3752 52.7425 61.8887 52.6522V52.6522Z" fill="#3CB5CF"/>
<path d="M44.2083 22L34.0833 22.0417C32.7708 22.0417 31.5417 22.7708 30.9167 23.9167L25.625 33.5L43.1875 33.4583L44.2083 22Z" fill="#3CB5CF"/>
<path d="M65.9997 33.4173L60.6455 23.834C59.9997 22.6882 58.7913 21.959 57.458 21.959L47.333 22.0007L48.3955 33.459L65.9997 33.4173Z" fill="#3CB5CF"/>
<path d="M66.667 43.209C66.042 42.959 65.3545 42.834 64.6462 42.834C63.2712 42.834 61.9378 43.334 60.8753 44.2507L54.042 50.209C52.792 51.2923 52.0837 52.8757 52.0837 54.5215C52.0837 56.1882 52.792 57.7507 54.042 58.8548L59.542 63.6465L28.3545 63.7298C28.3337 63.7298 28.3337 63.7298 28.3337 63.7298C26.542 63.7298 25.0628 62.2507 25.0628 60.4382L24.9795 36.6257L44.2503 36.584H47.3753L66.6462 36.5215L66.667 43.209Z" fill="#3CB5CF"/>
</g>
<defs>
<clipPath id="clip0_162_645">
<rect width="50" height="50" fill="white" transform="translate(25 22)"/>
</clipPath>
</defs>
</svg>
