<svg width="90" height="90" viewBox="0 0 90 90" fill="none" xmlns="http://www.w3.org/2000/svg">
<circle cx="45" cy="45" r="45" fill="#F2E1FA"/>
<path d="M41.875 35.6243V32.4993H23.125C21.4031 32.4993 20 33.9024 20 35.6243V41.8743H42.5344C42.1 39.9649 41.875 37.9086 41.875 35.6243Z" fill="#A244CE"/>
<path d="M69.8719 48.1243C67.7406 51.4086 64.4906 54.2024 59.8344 56.8774C59.1187 57.2868 58.3125 57.4993 57.5 57.4993C56.6875 57.4993 55.8812 57.2868 55.175 56.8836C50.5187 54.2024 47.2688 51.4055 45.1344 48.1243H20V63.7493C20 65.4743 21.4031 66.8743 23.125 66.8743H66.875C68.6 66.8743 70 65.4743 70 63.7493V48.1243H69.8719V48.1243ZM34.0625 57.4993H27.8125C26.95 57.4993 26.25 56.7993 26.25 55.9368C26.25 55.0743 26.95 54.3743 27.8125 54.3743H34.0625C34.925 54.3743 35.625 55.0743 35.625 55.9368C35.625 56.7993 34.925 57.4993 34.0625 57.4993Z" fill="#A244CE"/>
<path d="M69.0531 27.9398L58.1156 23.2523C57.7187 23.0835 57.2781 23.0835 56.8813 23.2523L45.9438 27.9398C45.3719 28.1835 45 28.7492 45 29.3742V35.6242C45 44.221 48.1781 49.246 56.7219 54.1679C56.9625 54.3054 57.2312 54.3742 57.5 54.3742C57.7688 54.3742 58.0375 54.3054 58.2781 54.1679C66.8219 49.2585 70 44.2335 70 35.6242V29.3742C70 28.7492 69.6281 28.1835 69.0531 27.9398ZM63.4094 35.0398L57.1594 42.8523C56.8594 43.221 56.4094 43.4367 55.9375 43.4367C55.9156 43.4367 55.8906 43.4367 55.8719 43.4367C55.375 43.4148 54.9156 43.1585 54.6375 42.7429L51.5125 38.0554C51.0344 37.3367 51.2281 36.3679 51.9469 35.8898C52.6594 35.4148 53.6313 35.6023 54.1125 36.3242L56.0531 39.2335L60.9656 33.0898C61.5063 32.4179 62.4906 32.3117 63.1625 32.846C63.8375 33.3804 63.9437 34.3648 63.4094 35.0398Z" fill="#A244CE"/>
</svg>
