<svg width="90" height="90" viewBox="0 0 90 90" fill="none" xmlns="http://www.w3.org/2000/svg">
<circle cx="45" cy="45" r="45" fill="#FAF3E1"/>
<path fill-rule="evenodd" clip-rule="evenodd" d="M45.0006 18.2031C56.8063 18.2031 66.3766 27.7734 66.3766 39.5793C66.3766 51.385 56.8063 60.9554 45.0006 60.9554C33.1948 60.9554 23.6242 51.3849 23.6242 39.5793C23.6242 27.7734 33.1948 18.2031 45.0006 18.2031ZM49.9242 62.404L55.3472 71.7969L57.5638 61.3397L67.7285 64.6485L62.3031 55.2514C59.0833 58.8039 54.7845 61.3605 49.9242 62.404V62.404ZM40.077 62.404C35.2164 61.3605 30.9177 58.8039 27.6979 55.2513L22.2725 64.6483L32.4369 61.3395L34.6539 71.7969L40.077 62.404ZM45.0006 27.417C38.2834 27.417 32.8382 32.8622 32.8382 39.5793C32.8382 46.2962 38.2834 51.7414 45.0006 51.7414C51.7175 51.7414 57.1628 46.2962 57.1628 39.5793C57.1628 32.8622 51.7175 27.417 45.0006 27.417V27.417ZM48.4387 34.8753C47.8613 34.077 46.9615 33.5397 45.985 33.4122V32.6597C45.985 32.116 45.5441 31.6753 45.0006 31.6753C44.4567 31.6753 44.0162 32.116 44.0162 32.6597V33.4501C42.3414 33.7802 41.1186 35.2608 41.1186 36.9732C41.1186 38.9498 42.7324 40.5638 44.7092 40.5638H45.2917C46.1819 40.5638 46.9136 41.2955 46.9136 42.1856C46.9136 43.0755 46.1817 43.8074 45.2917 43.8074H44.4712C43.9376 43.8074 43.4663 43.5615 43.1542 43.1298C42.8357 42.6902 42.2211 42.5921 41.7817 42.9106C41.342 43.2292 41.2438 43.8438 41.5625 44.2834C42.1397 45.0817 43.0395 45.619 44.0162 45.7465V46.4991C44.0162 47.0427 44.4567 47.4835 45.0006 47.4835C45.5441 47.4835 45.985 47.0427 45.985 46.4991V45.7086C47.6594 45.3783 48.8823 43.8978 48.8823 42.1856C48.8823 40.2087 47.2684 38.595 45.2917 38.595H44.7092C43.8192 38.595 43.0874 37.8632 43.0874 36.9732C43.0874 36.0831 43.8192 35.3514 44.7092 35.3514H45.5295C46.0632 35.3514 46.5345 35.5971 46.8467 36.0287C47.1652 36.4684 47.7798 36.5665 48.2195 36.2479C48.6591 35.9293 48.757 35.3147 48.4387 34.8753V34.8753ZM45.0006 22.8996C35.7885 22.8996 28.3209 30.3672 28.3209 39.5793C28.3209 48.7912 35.7885 56.259 45.0006 56.259C54.2125 56.259 61.6803 48.7912 61.6803 39.5793C61.6803 30.3673 54.2125 22.8996 45.0006 22.8996V22.8996Z" fill="#F4890C"/>
</svg>
