<svg width="15" height="19" viewBox="0 0 15 19" fill="none" xmlns="http://www.w3.org/2000/svg">
<path id="Vector" d="M7.41211 0.704346C10.2049 0.704346 12.4746 2.92088 12.4746 5.66239C12.4746 9.37884 7.41211 14.8702 7.41211 14.8702C7.41211 14.8702 2.34961 9.37884 2.34961 5.66239C2.34961 2.92088 4.6193 0.704346 7.41211 0.704346ZM7.41211 4.03748C6.96456 4.03748 6.53534 4.21307 6.21887 4.52561C5.9024 4.83815 5.72461 5.26205 5.72461 5.70405C5.72461 6.14605 5.9024 6.56995 6.21887 6.88249C6.53534 7.19504 6.96456 7.37062 7.41211 7.37062C7.85966 7.37062 8.28889 7.19504 8.60535 6.88249C8.92182 6.56995 9.09961 6.14605 9.09961 5.70405C9.09961 5.26205 8.92182 4.83815 8.60535 4.52561C8.28889 4.21307 7.85966 4.03748 7.41211 4.03748ZM14.1621 14.8702C14.1621 16.7117 11.1415 18.2033 7.41211 18.2033C3.68273 18.2033 0.662109 16.7117 0.662109 14.8702C0.662109 13.7952 1.69148 12.837 3.28617 12.2287L3.82617 12.987C2.91492 13.3619 2.34961 13.8786 2.34961 14.4535C2.34961 15.6035 4.6193 16.5368 7.41211 16.5368C10.2049 16.5368 12.4746 15.6035 12.4746 14.4535C12.4746 13.8786 11.9093 13.3619 10.998 12.987L11.538 12.2287C13.1327 12.837 14.1621 13.7952 14.1621 14.8702Z" fill="#002B5B"/>
</svg>
